<svg version="1.1" xmlns="http://www.w3.org/2000/svg" viewBox="0 0 625 399" width="1250" height="798">
  <!-- svg-source:excalidraw -->
  
  <defs>
    <style>
      @font-face {
        font-family: "Virgil";
        src: url("https://excalidraw.com/Virgil.woff2");
      }
      @font-face {
        font-family: "Cascadia";
        src: url("https://excalidraw.com/Cascadia.woff2");
      }
    </style>
  </defs>
  <rect x="0" y="0" width="625" height="399" fill="#ffffff"></rect><g stroke-linecap="round" transform="translate(10 94) rotate(0 302.5 147.5)"><path d="M-0.47 0.68 C228.72 1.73, 457.22 1.64, 605.13 0.74 M-0.17 -0.35 C196.43 -0.89, 392.38 -1.29, 605.02 0.24 M605.61 0.65 C606.89 77.59, 606.53 154.36, 605.05 295.07 M605.47 -0.14 C604.72 89.95, 605.62 179.4, 605.26 294.92 M605.42 295.15 C452.08 294.06, 298.53 294.21, -0.41 294.81 M605.4 295.01 C441.45 297.41, 278.08 297.46, -0.09 294.65 M-1.39 293.8 C0.24 181.32, 1.12 69.32, 0.33 -0.61 M-0.27 294.7 C-0.38 185.3, 0.11 75.02, -0.52 -0.66" stroke="#000000" stroke-width="1" fill="none"></path></g><g stroke-linecap="round" transform="translate(30 143) rotate(0 94.5 56)"><path d="M75.14 1.73 C86.72 -0.64, 101.52 -0.93, 113.95 0.49 C126.39 1.91, 139.2 5.71, 149.75 10.25 C160.29 14.8, 170.74 21.25, 177.23 27.74 C183.72 34.23, 187.57 41.77, 188.67 49.19 C189.77 56.6, 187.86 64.94, 183.84 72.23 C179.81 79.52, 172.9 87.01, 164.52 92.93 C156.15 98.85, 145.25 104.48, 133.58 107.76 C121.91 111.03, 107.49 112.81, 94.49 112.59 C81.49 112.38, 67.16 109.55, 55.57 106.45 C43.99 103.36, 33.45 99.62, 24.98 93.99 C16.51 88.37, 8.92 79.89, 4.74 72.69 C0.56 65.49, -1.49 58.23, -0.09 50.8 C1.32 43.36, 6.69 34.63, 13.2 28.07 C19.7 21.51, 27.58 15.96, 38.93 11.44 C50.29 6.92, 73.11 2.67, 81.32 0.96 C89.53 -0.74, 87.82 0.28, 88.2 1.22 M123.56 1.45 C135.4 3.19, 146.97 10.07, 156.36 15.12 C165.75 20.18, 174.23 25.12, 179.9 31.78 C185.57 38.45, 190.4 47.48, 190.36 55.14 C190.32 62.8, 185.19 70.53, 179.66 77.74 C174.12 84.96, 166.36 93.35, 157.18 98.43 C148 103.51, 136.68 106.19, 124.57 108.22 C112.47 110.25, 97.34 111.28, 84.57 110.61 C71.81 109.93, 59.07 107.55, 47.98 104.17 C36.89 100.8, 25.48 96.47, 18.03 90.36 C10.58 84.25, 5.91 75.22, 3.28 67.52 C0.66 59.82, -0.02 51.48, 2.26 44.15 C4.55 36.82, 9.45 29.61, 17 23.54 C24.54 17.48, 36.13 11.64, 47.53 7.77 C58.93 3.9, 72.65 1.39, 85.41 0.32 C98.17 -0.76, 117.59 0.87, 124.09 1.33 C130.59 1.79, 125.03 2.07, 124.41 3.1" stroke="#000000" stroke-width="1" fill="none"></path></g><g stroke-opacity="0.4" fill-opacity="0.4" transform="translate(60 173) rotate(0 64.5 13)"><text x="64.5" y="18" font-family="Virgil, Segoe UI Emoji" font-size="20px" fill="#000000" text-anchor="middle" style="white-space: pre;" direction="ltr">icon</text></g><g stroke-linecap="round" transform="translate(362 141) rotate(0 71.5 64)"><path d="M72.3 1.24 C88.88 15.8, 103.74 32.29, 142.09 64.59 M72.33 -0.21 C89.73 16.28, 108.07 33.83, 143.31 64.99 M144.69 64.32 C127.89 77.04, 111.49 91.71, 72.52 127.25 M143.98 65.61 C122.93 83.03, 101.66 102.38, 72.45 127.33 M72.08 129.13 C43.74 104.6, 19.35 80.62, -1.61 64.68 M71.08 127.98 C56.45 113.27, 40.23 99.64, 0.6 64.66 M-1.85 63.87 C27.27 41.61, 51.83 16.86, 72.52 0.8 M0.16 64.1 C17.92 49.11, 33.81 32.16, 71.11 -0.82" stroke="#000000" stroke-width="1" fill="none"></path></g><g stroke-linecap="round"><g transform="translate(207 201) rotate(0 92.04450691113249 0.4005207306518912)"><path d="M0.74 0 C31.42 0.12, 153.69 0.65, 184.42 0.89 M-0.33 -1.04 C30.21 -0.83, 152.81 1.26, 183.69 1.85" stroke="#000000" stroke-width="1" fill="none"></path></g></g><g stroke-linecap="round" transform="translate(71 25) rotate(0 51.5 40.5)"><path d="M66.05 1.76 C74.83 3, 84.56 8.07, 90.48 13.48 C96.39 18.88, 100.38 26.9, 101.56 34.19 C102.73 41.49, 101.38 50.67, 97.53 57.24 C93.68 63.81, 86.19 69.75, 78.48 73.6 C70.76 77.45, 60.35 80.02, 51.26 80.33 C42.17 80.65, 31.77 79.4, 23.96 75.51 C16.15 71.61, 8.44 63.74, 4.4 56.97 C0.36 50.2, -1.51 42.02, -0.29 34.88 C0.93 27.75, 5.52 19.75, 11.71 14.14 C17.9 8.54, 27.2 3.09, 36.87 1.26 C46.53 -0.57, 63.84 2.78, 69.71 3.15 C75.57 3.51, 72.6 2.76, 72.06 3.43 M35.51 1.19 C43.9 -1.6, 56.02 -1.01, 64.93 0.96 C73.84 2.93, 82.94 7.9, 88.98 13.01 C95.03 18.13, 99.66 24.71, 101.22 31.68 C102.78 38.64, 101.83 47.94, 98.34 54.8 C94.85 61.66, 87.82 68.53, 80.28 72.82 C72.75 77.11, 62.18 80.18, 53.15 80.55 C44.11 80.92, 33.98 78.49, 26.09 75.02 C18.19 71.54, 9.91 66.04, 5.79 59.7 C1.67 53.36, 0.57 44.26, 1.38 36.97 C2.19 29.69, 4.84 21.58, 10.64 15.98 C16.44 10.38, 32.26 5.47, 36.19 3.37 C40.13 1.26, 34.17 2.88, 34.23 3.36" stroke="#000000" stroke-width="1" fill="none"></path></g><g stroke-linecap="round"><g transform="translate(173.33508879859232 41.928122189194454) rotate(335.7127220842525 58.783359351241415 8.44772955611029)"><path d="M-0.04 0.41 C19.55 3.38, 97.21 14.63, 116.77 17.32 M-1.52 -0.43 C18.53 2.26, 99.42 12.55, 119.09 15.59" stroke="#000000" stroke-width="1" fill="none"></path></g></g><g stroke-linecap="round" transform="translate(283 10) rotate(0 32 23.5)"><path d="M22.11 1.27 C28.1 -0.64, 37.27 -0.19, 43.56 1.52 C49.85 3.22, 56.36 7.04, 59.84 11.48 C63.33 15.92, 65.85 23.21, 64.48 28.15 C63.11 33.09, 57.03 37.9, 51.63 41.13 C46.24 44.35, 38.87 47.49, 32.12 47.5 C25.37 47.52, 16.33 44.53, 11.14 41.2 C5.94 37.86, 2.05 32.33, 0.95 27.51 C-0.16 22.69, 0.93 16.59, 4.49 12.27 C8.04 7.95, 18.79 3.51, 22.27 1.61 C25.75 -0.29, 25.22 0.74, 25.37 0.88 M46.8 3.66 C52.8 5.35, 58.7 9.82, 61.45 14.03 C64.19 18.25, 65.28 24.28, 63.25 28.96 C61.21 33.64, 55.24 39.39, 49.21 42.13 C43.18 44.88, 33.62 45.88, 27.06 45.43 C20.5 44.99, 14.15 42.77, 9.85 39.46 C5.55 36.15, 1.75 30.64, 1.28 25.55 C0.8 20.47, 2.91 12.91, 6.97 8.92 C11.04 4.93, 18.81 2.62, 25.65 1.61 C32.5 0.61, 44.36 2.47, 48.04 2.91 C51.72 3.35, 48.26 3.97, 47.76 4.25" stroke="#c92a2a" stroke-width="1" fill="none"></path></g><g transform="translate(101 55) rotate(0 21.5 10.5)"><text x="21.500000000000007" y="15" font-family="Virgil, Segoe UI Emoji" font-size="16px" fill="#c92a2a" text-anchor="middle" style="white-space: pre;" direction="ltr">jack</text></g></svg>